HIERARCHY
ROOT Hips
{
	OFFSET 0.00000 0.00000 0.00000
	CHANNELS 6 Xposition Yposition Zposition Zrotation Yrotation Xrotation 
	JOINT LHipJoint
	{
		OFFSET 0 0 0
		CHANNELS 3 Zrotation Yrotation Xrotation
		JOINT LeftHip
		{
			OFFSET 1.58895 -1.83665 0.71753
			CHANNELS 3 Zrotation Yrotation Xrotation
			JOINT LeftKnee
			{
				OFFSET 2.50528 -6.88321 0.00000
				CHANNELS 3 Zrotation Yrotation Xrotation
				JOINT LeftAnkle
				{
					OFFSET 2.63244 -7.23257 0.00000
					CHANNELS 3 Zrotation Yrotation Xrotation
					JOINT LeftToe
					{
						OFFSET 0.23691 -0.65090 1.72750
						CHANNELS 3 Zrotation Yrotation Xrotation
						End Site
						{
							OFFSET 0.00000 -0.00000 0.92561
						}
					}
				}
			}
		}
	}
	JOINT RHipJoint
	{
		OFFSET 0 0 0
		CHANNELS 3 Zrotation Yrotation Xrotation
		JOINT RightHip
		{
			OFFSET -1.51435 -1.83665 0.71753
			CHANNELS 3 Zrotation Yrotation Xrotation
			JOINT RightKnee
			{
				OFFSET -2.54551 -6.99375 0.00000
				CHANNELS 3 Zrotation Yrotation Xrotation
				JOINT RightAnkle
				{
					OFFSET -2.66027 -7.30903 0.00000
					CHANNELS 3 Zrotation Yrotation Xrotation
					JOINT RightToe
					{
						OFFSET -0.22981 -0.63138 2.03959
						CHANNELS 3 Zrotation Yrotation Xrotation
						End Site
						{
							OFFSET -0.00000 -0.00000 1.07060
						}
					}
				}
			}
		}
	}
	JOINT lowerback
	{
		OFFSET 0 0 0
		CHANNELS 3 Zrotation Yrotation Xrotation
		JOINT Chest
		{
			OFFSET -0.02651 1.86275 -0.11152
			CHANNELS 3 Zrotation Yrotation Xrotation
			JOINT Chest2
			{
				OFFSET 0.01019 1.86224 0.04087
				CHANNELS 3 Zrotation Yrotation Xrotation
				JOINT lowerneck
				{
					OFFSET 0 0 0
					CHANNELS 3 Zrotation Yrotation Xrotation
					JOINT Neck
					{
						OFFSET -0.01926 1.80512 0.08867
						CHANNELS 3 Zrotation Yrotation Xrotation
						JOINT Head
						{
							OFFSET 0.05516 1.76451 -0.38475
							CHANNELS 3 Zrotation Yrotation Xrotation
							End Site
							{
								OFFSET 0.01592 1.82587 -0.14001
							}
						}
					}
				}
				JOINT LeftCollar
				{
					OFFSET 0 0 0
					CHANNELS 3 Zrotation Yrotation Xrotation
					JOINT LeftShoulder
					{
						OFFSET 3.47116 1.51376 0.14491
CHANNELS 3 Zrotation Xrotation Yrotation
						JOINT LeftElbow
						{
OFFSET 0 -4.780950 0.000000
CHANNELS 3 Zrotation Xrotation Yrotation
							JOINT LeftWrist
							{
OFFSET 0 -3.586150 -0.000000
CHANNELS 3 Zrotation Xrotation Yrotation
								JOINT lhand
								{
									OFFSET 0 0 0
CHANNELS 3 Zrotation Xrotation Yrotation
									JOINT LFingers
									{
OFFSET 0 -0.659810 0.000000
CHANNELS 3 Zrotation Xrotation Yrotation
										End Site
										{
OFFSET 0 -0.531960 0.000000
										}
									}
								}
								JOINT LThumb
								{
OFFSET 0 0.000000 0.000000
CHANNELS 3 Zrotation Xrotation Yrotation
									End Site
									{
OFFSET 0 -0.540080 0.540080
									}
								}
							}
						}
					}
				}
				JOINT RightCollar
				{
					OFFSET 0 0 0
					CHANNELS 3 Zrotation Yrotation Xrotation
					JOINT RightShoulder
					{
						OFFSET -3.31725 1.61216 0.35156
CHANNELS 3 Zrotation Xrotation Yrotation
						JOINT RightElbow
						{
OFFSET 0 -4.489130 0.000000
CHANNELS 3 Zrotation Xrotation Yrotation
							JOINT RightWrist
							{
OFFSET 0 -3.705100 0.000000
CHANNELS 3 Zrotation Xrotation Yrotation
								JOINT rhand
								{
									OFFSET 0 0 0
CHANNELS 3 Zrotation Xrotation Yrotation
									JOINT RFingers
									{
OFFSET 0 -0.449140 0.000000
CHANNELS 3 Zrotation Xrotation Yrotation
										End Site
										{
OFFSET 0 -0.362110 0.000000
										}
									}
								}
								JOINT RThumb
								{
OFFSET 0 0.000000 0.000000
CHANNELS 3 Zrotation Xrotation Yrotation
									End Site
									{
OFFSET 0 -0.367630 0.367630
									}
								}
							}
						}
					}
				}
			}
		}
	}
}
MOTION
Frames: 12
Frame Time: 0.008333333333333333
-0.494788 18.699778 5.779283 -1.412155 -2.776249 2.241987 0.000000 0.000000 0.000000 -13.918920 -8.599617 -1.208528 1.276595 7.160590 20.191934 1.691813 6.799379 -27.822113 7.857079 -16.013167 -52.046349 0.000000 0.000000 0.000000 0.000000 0.000000 0.000000 0.000000 0.000000 0.000000 0.000000 0.000000 0.000000 0.000000 0.000000 0.000000 -2.692384 2.298054 1.430453 1.545873 3.034501 -2.489879 2.959450 1.609048 -3.592229 -2.448839 -2.592892 -16.882620 1.105160 -3.473698 35.506645 0.279813 -1.635699 15.339158 0.000000 0.000000 0.000000 12.156330 9.794583 -60.470023 126.200212 -54.417578 90.762612 16.548352 -39.423751 29.374376 0.000000 0.000000 0.000000 -7.125000 0.000000 0.000000 -8.293900 -0.161888 -8.405730 0.000000 0.000000 0.000000 -23.683024 -15.599374 17.383815 -71.622507 -58.684077 -44.155033 -27.874058 -43.528531 66.727116 0.000000 0.000000 0.000000 7.125000 0.000000 0.000000 124.581444 -76.852191 136.287449
-0.492187 18.699300 5.777648 -1.381766 -2.792555 2.242011 0.000000 0.000000 0.000000 -13.964666 -8.618384 -1.199185 1.276324 7.159763 20.189494 1.697498 6.790998 -27.856050 7.856827 -16.012924 -52.045354 0.000000 0.000000 0.000000 0.000000 0.000000 0.000000 0.000000 0.000000 0.000000 0.000000 0.000000 0.000000 0.000000 0.000000 0.000000 -2.725035 2.334654 1.377532 1.548129 3.083577 -2.464030 2.980359 1.633403 -3.541188 -2.398054 -2.582529 -16.865294 0.994538 -3.432565 35.509448 0.232070 -1.626810 15.331276 0.000000 0.000000 0.000000 12.140761 9.885128 -60.390234 126.402039 -54.347411 90.926671 16.584031 -39.447683 29.402553 0.000000 0.000000 0.000000 -7.125000 0.000000 0.000000 -8.275915 -0.196187 -8.392115 0.000000 0.000000 0.000000 -25.455977 -16.582224 16.159419 -68.379873 -58.156135 -41.392495 -26.738943 -44.697898 66.879327 0.000000 0.000000 0.000000 7.125000 0.000000 0.000000 123.243786 -76.678359 135.289556
-0.490038 18.700234 5.775704 -1.394033 -2.768749 2.253009 0.000000 0.000000 0.000000 -13.948512 -8.618724 -1.228357 1.277145 7.162117 20.196567 1.699468 6.773959 -27.859109 7.870330 -16.023027 -52.094223 0.000000 0.000000 0.000000 0.000000 0.000000 0.000000 0.000000 0.000000 0.000000 0.000000 0.000000 0.000000 0.000000 0.000000 0.000000 -2.757673 2.364488 1.362270 1.582441 3.123956 -2.470189 3.032461 1.655090 -3.545802 -2.184452 -2.572512 -16.732825 0.761522 -3.403567 35.463208 0.103924 -1.619529 15.265781 0.000000 0.000000 0.000000 12.008167 9.911737 -60.246429 126.546724 -54.296749 91.044204 16.675591 -39.370485 29.341972 0.000000 0.000000 0.000000 -7.125000 0.000000 0.000000 -8.216721 -0.150623 -8.324312 0.000000 0.000000 0.000000 -27.019235 -17.471226 14.854048 -65.526827 -57.608601 -38.976108 -29.885249 -42.394953 65.438532 0.000000 0.000000 0.000000 7.125000 0.000000 0.000000 124.912825 -77.873238 135.594383
-0.486815 18.699490 5.772403 -1.387763 -2.727466 2.252939 0.000000 0.000000 0.000000 -13.956566 -8.610019 -1.269793 1.281643 7.174243 20.232563 1.701508 6.713290 -27.837003 7.891663 -16.038961 -52.171522 0.000000 0.000000 0.000000 0.000000 0.000000 0.000000 0.000000 0.000000 0.000000 0.000000 0.000000 0.000000 0.000000 0.000000 0.000000 -2.734872 2.402469 1.430497 1.577454 3.173828 -2.498316 3.008246 1.680677 -3.615694 -2.105637 -2.570502 -16.631489 0.703930 -3.406738 35.479033 0.066980 -1.618343 15.246139 0.000000 0.000000 0.000000 11.991022 10.001039 -60.175834 126.665987 -54.254720 91.141009 16.551111 -39.316529 29.165021 0.000000 0.000000 0.000000 -7.125000 0.000000 0.000000 -8.271923 0.048027 -8.352538 0.000000 0.000000 0.000000 -28.225577 -18.134870 13.360755 -63.019289 -57.059949 -36.864939 -28.849050 -42.743838 65.467207 0.000000 0.000000 0.000000 7.125000 0.000000 0.000000 123.228476 -77.794709 134.182853
-0.476809 18.701151 5.765786 -1.386168 -2.814505 2.317528 0.000000 0.000000 0.000000 -14.009608 -8.712719 -1.373554 1.293938 7.207192 20.330834 1.705180 6.835301 -27.935514 7.885731 -16.034516 -52.149973 0.000000 0.000000 0.000000 0.000000 0.000000 0.000000 0.000000 0.000000 0.000000 0.000000 0.000000 0.000000 0.000000 0.000000 0.000000 -2.585376 2.490816 1.466012 1.534711 3.294433 -2.538794 2.871374 1.737325 -3.675108 -2.158307 -2.579513 -16.628342 0.734565 -3.413515 35.560351 0.087661 -1.622860 15.286918 0.000000 0.000000 0.000000 11.973150 10.066513 -60.091088 126.712480 -54.238351 91.178792 16.475560 -39.274559 29.090015 0.000000 0.000000 0.000000 -7.125000 0.000000 0.000000 -8.308885 0.135927 -8.377731 0.000000 0.000000 0.000000 -29.370750 -18.821191 11.765559 -60.533637 -56.448921 -34.785814 -28.946081 -41.941743 65.946253 0.000000 0.000000 0.000000 7.125000 0.000000 0.000000 124.495270 -77.460537 135.621745
-0.449062 18.705755 5.749151 -1.385666 -3.138312 2.529524 0.000000 0.000000 0.000000 -14.152070 -8.941089 -1.623571 1.307420 7.243136 20.437664 1.727394 7.122231 -28.261270 7.818791 -15.984369 -51.907405 0.000000 0.000000 0.000000 0.000000 0.000000 0.000000 0.000000 0.000000 0.000000 0.000000 0.000000 0.000000 0.000000 0.000000 0.000000 -2.198569 2.666943 1.511783 1.450180 3.538885 -2.626167 2.550198 1.849151 -3.778691 -2.085646 -2.564205 -16.701338 0.615353 -3.367908 35.665900 0.031417 -1.608712 15.349357 0.000000 0.000000 0.000000 12.001522 10.113043 -60.051501 126.780255 -54.214307 91.233740 16.535399 -39.307581 29.082779 0.000000 0.000000 0.000000 -7.125000 0.000000 0.000000 -8.273246 0.133156 -8.341465 0.000000 0.000000 0.000000 -30.197661 -19.072662 9.997415 -58.941064 -56.020406 -33.461607 -29.922821 -40.261908 66.172785 0.000000 0.000000 0.000000 7.125000 0.000000 0.000000 126.543426 -77.339320 137.523798
-0.446365 18.705636 5.748365 -1.381199 -3.052357 2.543539 0.000000 0.000000 0.000000 -14.125723 -8.841957 -1.762569 1.317759 7.270579 20.519451 1.721492 6.973173 -28.129848 7.837764 -15.998629 -51.976309 0.000000 0.000000 0.000000 0.000000 0.000000 0.000000 0.000000 0.000000 0.000000 0.000000 0.000000 0.000000 0.000000 0.000000 0.000000 -2.149051 2.699588 1.543330 1.426699 3.582906 -2.636283 2.494128 1.869710 -3.805019 -1.984962 -2.549650 -16.703788 0.493722 -3.333306 35.749760 -0.031692 -1.596473 15.384320 0.000000 0.000000 0.000000 12.139437 10.267442 -59.974647 126.800623 -54.207104 91.250294 16.320433 -39.215311 29.236979 0.000000 0.000000 0.000000 -7.125000 0.000000 0.000000 -8.413289 0.013993 -8.503399 0.000000 0.000000 0.000000 -31.015737 -19.234611 8.301055 -57.286808 -55.540944 -32.093889 -30.669059 -38.826436 66.214365 0.000000 0.000000 0.000000 7.125000 0.000000 0.000000 127.821778 -77.332053 138.637912
-0.443639 18.707206 5.745942 -1.355858 -2.937350 2.596017 0.000000 0.000000 0.000000 -14.132960 -8.869915 -1.879792 1.321192 7.279720 20.546885 1.716781 6.891772 -28.048961 7.848465 -16.006680 -52.014994 0.000000 0.000000 0.000000 0.000000 0.000000 0.000000 0.000000 0.000000 0.000000 0.000000 0.000000 0.000000 0.000000 0.000000 0.000000 -2.108264 2.737972 1.615111 1.395832 3.633554 -2.678374 2.431862 1.894538 -3.887734 -1.877950 -2.554630 -16.635183 0.322445 -3.310662 35.738798 -0.117270 -1.596342 15.355429 0.000000 0.000000 0.000000 12.217887 10.373235 -59.947661 126.775458 -54.216041 91.229881 16.339372 -39.028365 29.329519 0.000000 0.000000 0.000000 -7.125000 0.000000 0.000000 -8.411194 -0.082025 -8.515420 0.000000 0.000000 0.000000 -32.388526 -19.801148 6.721640 -54.877557 -54.780296 -30.116531 -30.593083 -38.762965 66.023316 0.000000 0.000000 0.000000 7.125000 0.000000 0.000000 127.324474 -77.472483 138.077527
-0.442147 18.707939 5.745065 -1.362826 -2.867633 2.628005 0.000000 0.000000 0.000000 -14.089943 -8.770832 -2.009845 1.325734 7.291792 20.582757 1.705597 6.779210 -27.904243 7.859771 -16.015159 -52.056105 0.000000 0.000000 0.000000 0.000000 0.000000 0.000000 0.000000 0.000000 0.000000 0.000000 0.000000 0.000000 0.000000 0.000000 0.000000 -2.072144 2.775503 1.635295 1.400404 3.684824 -2.670091 2.412738 1.919039 -3.891654 -1.915836 -2.561744 -16.624101 0.312989 -3.302145 35.714691 -0.112520 -1.598754 15.341808 0.000000 0.000000 0.000000 12.274218 10.510408 -59.914541 126.848559 -54.190039 91.289138 16.408903 -39.031661 29.226810 0.000000 0.000000 0.000000 -7.125000 0.000000 0.000000 -8.360845 0.009532 -8.449883 0.000000 0.000000 0.000000 -33.739119 -20.471346 5.068284 -52.633305 -54.000783 -28.292004 -30.914308 -37.912037 66.097621 0.000000 0.000000 0.000000 7.125000 0.000000 0.000000 127.992455 -77.425425 138.698932
-0.440468 18.707800 5.744192 -1.358564 -2.820873 2.636375 0.000000 0.000000 0.000000 -14.086324 -8.761724 -2.064626 1.330943 7.305418 20.623350 1.699795 6.747710 -27.845856 7.877053 -16.028040 -52.118598 0.000000 0.000000 0.000000 0.000000 0.000000 0.000000 0.000000 0.000000 0.000000 0.000000 0.000000 0.000000 0.000000 0.000000 0.000000 -2.042438 2.828999 1.638178 1.395396 3.756976 -2.619103 2.388239 1.952973 -3.842366 -1.878676 -2.555077 -16.614884 0.284246 -3.290315 35.656033 -0.128225 -1.592163 15.309516 0.000000 0.000000 0.000000 12.398018 10.596049 -59.941303 126.978540 -54.143736 91.394498 16.382134 -39.119040 29.243908 0.000000 0.000000 0.000000 -7.125000 0.000000 0.000000 -8.378026 -0.003086 -8.469609 0.000000 0.000000 0.000000 -34.766241 -21.299584 3.120952 -50.681692 -53.266215 -26.719613 -31.186947 -36.521637 66.109689 0.000000 0.000000 0.000000 7.125000 0.000000 0.000000 128.458925 -77.421632 139.104572
-0.438969 18.707998 5.743503 -1.362657 -2.789301 2.634340 0.000000 0.000000 0.000000 -14.085773 -8.780742 -2.072996 1.332566 7.309832 20.636497 1.696956 6.757129 -27.832072 7.888917 -16.036904 -52.161566 0.000000 0.000000 0.000000 0.000000 0.000000 0.000000 0.000000 0.000000 0.000000 0.000000 0.000000 0.000000 0.000000 0.000000 0.000000 -1.959282 2.861075 1.680391 1.357770 3.800629 -2.593397 2.299207 1.971192 -3.833704 -1.617060 -2.494491 -16.513331 0.109706 -3.220447 35.550686 -0.232165 -1.552503 15.223042 0.000000 0.000000 0.000000 12.562249 10.788961 -59.935241 127.048802 -54.118564 91.451405 16.541197 -39.300868 29.377298 0.000000 0.000000 0.000000 -7.125000 0.000000 0.000000 -8.298385 -0.163551 -8.410598 0.000000 0.000000 0.000000 -36.721402 -22.293478 1.708424 -47.680576 -52.007202 -24.336152 -30.515339 -37.938244 65.655113 0.000000 0.000000 0.000000 7.125000 0.000000 0.000000 126.433582 -77.741310 137.049798
-0.438570 18.709336 5.741605 -1.358706 -2.747618 2.655056 0.000000 0.000000 0.000000 -14.092705 -8.864499 -2.078189 1.330957 7.305688 20.624125 1.696225 6.798979 -27.852309 7.900581 -16.045616 -52.203762 0.000000 0.000000 0.000000 0.000000 0.000000 0.000000 0.000000 0.000000 0.000000 0.000000 0.000000 0.000000 0.000000 0.000000 0.000000 -1.922020 2.859214 1.688378 1.349043 3.798836 -2.560331 2.270116 1.968432 -3.800621 -1.453176 -2.463977 -16.514577 0.005982 -3.191589 35.618755 -0.299885 -1.531923 15.249144 0.000000 0.000000 0.000000 12.628124 10.971048 -59.858629 127.166867 -54.076138 91.547064 16.511156 -39.292117 29.427445 0.000000 0.000000 0.000000 -7.125000 0.000000 0.000000 -8.320736 -0.208956 -8.440367 0.000000 0.000000 0.000000 -38.421502 -23.620205 0.171980 -44.551614 -50.541275 -21.893613 -29.318354 -38.807091 65.211606 0.000000 0.000000 0.000000 7.125000 0.000000 0.000000 123.400390 -78.001990 134.132311
